<svg width="34" height="34" viewBox="0 0 34 34" fill="none" xmlns="http://www.w3.org/2000/svg">
<path d="M21.4271 29.8916L9.49166 17.9916C9.34999 17.8499 9.24941 17.6965 9.18991 17.5312C9.13041 17.3659 9.10113 17.1888 9.10207 16.9999C9.10207 16.8111 9.13135 16.634 9.18991 16.4687C9.24846 16.3034 9.34904 16.1499 9.49166 16.0083L21.4271 4.07286C21.7576 3.7423 22.1708 3.57703 22.6667 3.57703C23.1625 3.57703 23.5875 3.75411 23.9417 4.10828C24.2958 4.46244 24.4729 4.87564 24.4729 5.34786C24.4729 5.82008 24.2958 6.23328 23.9417 6.58744L13.5292 16.9999L23.9417 27.4124C24.2722 27.743 24.4375 28.1505 24.4375 28.635C24.4375 29.1195 24.2604 29.5384 23.9062 29.8916C23.5521 30.2458 23.1389 30.4229 22.6667 30.4229C22.1944 30.4229 21.7812 30.2458 21.4271 29.8916Z" fill="#C8C8C8"/>
</svg>
