<svg width="520" height="521" viewBox="0 0 520 521" fill="none" xmlns="http://www.w3.org/2000/svg">
<path d="M60.6667 0H520V60.7833H60.6667V0Z" fill="#D4A50D"/>
<path d="M60.6667 0L60.6667 521C27.1614 521 -1.46456e-06 493.786 0 460.217L1.74263e-05 60.7833C1.88908e-05 27.2136 27.1614 -1.46738e-06 60.6667 0Z" fill="#D4A50D"/>
<path d="M86.6667 434.167V329.967H95.3333C124.052 329.967 147.333 353.293 147.333 382.067V434.167H86.6667Z" fill="#D4A50D"/>
<path d="M234 521V356.017H225.333C196.615 356.017 173.333 379.343 173.333 408.117V521H234Z" fill="#D4A50D"/>
<path d="M320.667 521V329.967H312C283.281 329.967 260 353.293 260 382.067V521H320.667Z" fill="#D4A50D"/>
<path d="M173.333 521V460.217H112.667C83.9478 460.217 60.6667 483.543 60.6667 512.317L60.6667 521H173.333Z" fill="#D4A50D"/>
<path d="M86.6667 91.175C86.6667 88.7772 88.6068 86.8333 91 86.8333H156V151.958C156 173.539 138.539 191.033 117 191.033H86.6667V91.175Z" fill="#D4A50D"/>
<path d="M60.6667 60.7833V78.15C60.6667 68.5587 68.4271 60.7833 78 60.7833H60.6667Z" fill="#D4A50D"/>
<path fill-rule="evenodd" clip-rule="evenodd" d="M86.6667 217.083V329.967H283.833H481C502.539 329.967 520 312.472 520 290.892V86.8333H355.333V208.4C355.333 241.97 328.172 269.183 294.667 269.183H268.667V243.133H294.667C313.813 243.133 329.333 227.583 329.333 208.4V86.8333H182V151.958C182 187.926 152.899 217.083 117 217.083H86.6667ZM169 256.158C169 253.76 170.94 251.817 173.333 251.817H195C195 261.408 187.24 269.183 177.667 269.183H169V256.158Z" fill="#D4A50D"/>
<path d="M156 86.8333H91C90.1026 86.8333 89.2688 87.1067 88.5772 87.5748C87.8483 88.0682 87.2773 88.7779 86.956 89.612C86.8199 89.9651 86.7286 90.3404 86.689 90.7311C86.6742 90.8771 86.6667 91.0251 86.6667 91.175V191.033H117C138.539 191.033 156 173.539 156 151.958V86.8333Z" fill="#D4A50D"/>
<path d="M420.333 448.407V356.017H346.667V402.559H349.139C361.392 402.559 371.325 392.607 371.325 380.33H397.325C397.325 406.994 375.751 428.609 349.139 428.609H346.667V521H420.333V474.457H417.918C405.664 474.457 395.731 484.41 395.731 496.687H369.731C369.731 470.023 391.305 448.407 417.918 448.407H420.333Z" fill="#D4A50D"/>
<path d="M520 521V356.017H446.333V402.559H448.805C461.059 402.559 470.992 392.607 470.992 380.33H496.992C496.992 406.994 475.418 428.609 448.805 428.609H446.333V448.407H448.805C475.418 448.407 496.992 470.023 496.992 496.687H470.992C470.992 484.41 461.059 474.457 448.805 474.457H446.333V521H520Z" fill="#D4A50D"/>
</svg>
