<svg width="254" height="168" viewBox="0 0 254 168" fill="none" xmlns="http://www.w3.org/2000/svg">
<path d="M0 0L47.1741 0V24.3825L42.0956 24.3825C35.8041 24.3825 30.7038 19.2822 30.7038 12.9907L15.6569 12.9907L15.6569 68.5507H30.7038C30.7038 63.1422 35.0883 58.7578 40.4968 58.7578H47.1741V81.7412H0L0 0Z" fill="#D4A50D"/>
<path fill-rule="evenodd" clip-rule="evenodd" d="M98.4659 0L57.6763 0C54.3461 0 51.6465 3.12636 51.6465 6.98292L51.6465 46.0051H51.8238V81.3305H64.0607L64.0607 57.2364C64.0607 51.8716 60.9272 47.3543 56.6641 46.0051H80.7312C82.8483 46.0051 84.8787 45.5755 86.761 44.7875V81.7412H98.8205V51.345C98.8205 46.5196 96.1595 42.4139 92.4441 40.8888C96.1362 37.1251 98.4659 31.6112 98.4659 25.4671V0ZM70.4452 18.4842C69.6616 18.4842 69.0264 19.2198 69.0264 20.1272V27.5209H72.928C77.2376 27.5209 80.7312 23.475 80.7312 18.4842H70.4452Z" fill="#D4A50D"/>
<path fill-rule="evenodd" clip-rule="evenodd" d="M120.782 0C111.124 0 103.295 7.82918 103.295 17.4869L103.295 81.7412H132.982C142.64 81.7412 150.469 73.9121 150.469 64.2543V0L120.782 0ZM129.63 20.2299C124.577 20.2299 120.48 24.3265 120.48 29.38V62.339H122.666C127.72 62.339 131.817 58.2423 131.817 53.1889V20.2299H129.63Z" fill="#D4A50D"/>
<path d="M202.117 35.9671V81.7422H154.943V58.6826H156.526C164.373 58.6826 170.734 63.6135 170.734 69.6961H187.384C187.384 56.4854 173.568 45.776 156.526 45.776H154.943V0.000938416H202.117V23.0606H200.571C192.724 23.0606 186.363 18.1296 186.363 12.047H169.713C169.713 25.2577 183.528 35.9671 200.57 35.9671H202.117Z" fill="#D4A50D"/>
<path d="M253.763 35.9671V81.7422H206.589V58.6826H208.172C216.018 58.6826 222.379 63.6135 222.379 69.6961H239.029C239.029 56.4854 225.214 45.776 208.172 45.776H206.589V0.000938416H253.763V23.0606H252.216C244.369 23.0606 238.008 18.1296 238.008 12.047H221.359C221.359 25.2577 235.174 35.9671 252.216 35.9671H253.763Z" fill="#D4A50D"/>
<path fill-rule="evenodd" clip-rule="evenodd" d="M46.8194 86H6.02977C2.69962 86 0 89.1264 0 92.9829L0 132.005H0.177346L0.177346 167.33H12.4142L12.4142 143.236C12.4142 137.872 9.28075 133.354 5.01766 132.005H29.0848C31.2018 132.005 33.2322 131.576 35.1145 130.788V167.741H47.1741V137.345C47.1741 132.52 44.513 128.414 40.7976 126.889C44.4897 123.125 46.8194 117.611 46.8194 111.467V86ZM18.7987 104.484C18.0151 104.484 17.3799 105.22 17.3799 106.127V113.521H21.2815C25.5911 113.521 29.0848 109.475 29.0848 104.484H18.7987Z" fill="#D4A50D"/>
<path fill-rule="evenodd" clip-rule="evenodd" d="M69.1344 86C59.4766 86 51.6475 93.8292 51.6475 103.487L51.6475 167.741H81.3346C90.9924 167.741 98.8215 159.912 98.8215 150.254V86H69.1344ZM77.983 106.23C72.9295 106.23 68.8328 110.327 68.8328 115.38V148.339H71.0191C76.0726 148.339 80.1692 144.242 80.1692 139.189V106.23H77.983Z" fill="#D4A50D"/>
<path fill-rule="evenodd" clip-rule="evenodd" d="M103.295 97.7935L103.295 167.741H117.447C117.447 154.509 117.447 144.691 108.799 137.008H126.881V137.008H144.964C136.315 144.478 136.315 154.509 136.315 167.741H150.468V97.7936C150.468 91.2802 145.187 86.0001 138.674 86.0001H126.882V86H115.088C108.575 86 103.295 91.2801 103.295 97.7935ZM129.74 101.581C124.687 101.581 120.59 105.678 120.59 110.731V120.363H123.627C128.68 120.363 132.777 116.266 132.777 111.212V101.581H129.74Z" fill="#D4A50D"/>
<path d="M191.951 167.741H154.943V117.937H164.5C171.238 117.937 176.7 123.399 176.7 130.137V149.874H179.285C184.9 149.874 189.452 145.322 189.452 139.707V113.787C189.452 109.295 185.811 105.654 181.319 105.654H171.21C162.226 105.654 154.943 98.3707 154.943 89.3867V86H185.85C194.834 86 202.117 93.283 202.117 102.267V157.574C202.117 163.189 197.566 167.741 191.951 167.741Z" fill="#D4A50D"/>
<path d="M253.765 121.967V167.742H206.591V144.683H208.174C216.02 144.683 222.381 149.613 222.381 155.696H239.031C239.031 142.485 225.216 131.776 208.174 131.776H206.591V86.0009H253.765V109.061H252.218C244.371 109.061 238.01 104.13 238.01 98.047H221.361C221.361 111.258 235.176 121.967 252.218 121.967H253.765Z" fill="#D4A50D"/>
</svg>
