<svg width="358" height="222" viewBox="0 0 358 222" fill="none" xmlns="http://www.w3.org/2000/svg">
<path d="M0.0641357 0H60.1205V29.9413H58.1053C48.1159 29.9413 40.0178 23.5389 40.0178 15.641H18.8214V90.4945H40.0178C40.0178 82.5966 48.1159 76.1941 58.1053 76.1941H60.1205V106.135H0.0641357V0Z" fill="#D4A50D"/>
<path fill-rule="evenodd" clip-rule="evenodd" d="M134.59 104.127C134.59 94.1719 128.922 59.8508 121.929 59.8508H134.59V0H74.534L74.534 106.135H101.044V104.127C101.044 94.1719 95.375 64.9777 88.3823 64.9777H108.081V106.135H134.59V104.127ZM105.247 15.1619C105.247 23.0597 112.393 29.4622 121.207 29.4622L121.207 46.2205C102.064 46.2205 86.5447 32.3151 86.5447 15.1619H105.247Z" fill="#D4A50D"/>
<path fill-rule="evenodd" clip-rule="evenodd" d="M209.06 0H149.004V106.135H209.06V0ZM195.447 34.7132V90.175H181.434C171.041 90.175 162.616 81.7788 162.616 71.4217V15.96H176.629C187.022 15.96 195.447 24.3561 195.447 34.7132Z" fill="#D4A50D"/>
<path d="M283.53 46.6996V106.135H223.474V76.1941H225.489C235.478 76.1941 243.577 82.5966 243.577 90.4945H264.773C264.773 73.3413 247.185 59.4359 225.489 59.4359H223.474V0H283.53V29.9414H281.561C271.571 29.9414 263.473 23.5389 263.473 15.641H242.277C242.277 32.7942 259.865 46.6996 281.561 46.6996H283.53Z" fill="#D4A50D"/>
<path d="M358 46.6996V106.135H297.944V76.1941H299.959C309.948 76.1941 318.046 82.5966 318.046 90.4945H339.243C339.243 73.3413 321.655 59.4359 299.959 59.4359H297.944V0H358V29.9414H356.031C346.041 29.9414 337.943 23.5389 337.943 15.641H316.747C316.747 32.7942 334.335 46.6996 356.031 46.6996H358Z" fill="#D4A50D"/>
<path fill-rule="evenodd" clip-rule="evenodd" d="M60.0564 219.992C60.0564 210.036 54.3877 175.715 47.3951 175.715H60.0564V115.865H5.39051e-06L0 222H26.5096V219.992C26.5096 210.036 20.8409 180.842 13.8483 180.842H33.5468V222H60.0564V219.992ZM30.7134 131.026C30.7134 138.924 37.8587 145.327 46.673 145.327L46.673 162.085C27.5295 162.085 12.0107 148.18 12.0107 131.026H30.7134Z" fill="#D4A50D"/>
<path fill-rule="evenodd" clip-rule="evenodd" d="M134.526 115.865H74.4699V222H134.526V115.865ZM120.913 150.578V206.04H106.9C96.507 206.04 88.082 197.643 88.082 187.286V131.825H102.095C112.488 131.825 120.913 140.221 120.913 150.578Z" fill="#D4A50D"/>
<path fill-rule="evenodd" clip-rule="evenodd" d="M208.996 222L208.996 115.865H148.94L148.94 222H175.449V219.992C175.449 210.036 169.781 180.842 162.788 180.842H195.148C188.155 180.842 182.487 210.036 182.487 219.992V222H208.996ZM181.773 131.026C181.773 138.924 188.918 145.327 197.733 145.327V162.085C178.589 162.085 163.07 148.18 163.07 131.026H181.773Z" fill="#D4A50D"/>
<path fill-rule="evenodd" clip-rule="evenodd" d="M283.466 115.865H223.41V222H283.466V115.865ZM241.497 165.277C241.497 157.38 233.399 150.977 223.41 150.977L223.41 134.219C245.106 134.219 262.694 148.124 262.694 165.277V203.646H241.827L241.497 165.277Z" fill="#D4A50D"/>
<path d="M357.936 162.564V222H297.88V192.059H299.895C309.884 192.059 317.982 198.461 317.982 206.359H339.179C339.179 189.206 321.591 175.3 299.895 175.3H297.88V115.865H357.936V145.806H355.967C345.977 145.806 337.879 139.403 337.879 131.506H316.683C316.683 148.659 334.271 162.564 355.967 162.564H357.936Z" fill="#D4A50D"/>
</svg>
